<?xml version="1.0" standalone="no"?><!DOCTYPE svg PUBLIC "-//W3C//DTD SVG 1.1//EN" "http://www.w3.org/Graphics/SVG/1.1/DTD/svg11.dtd"><svg t="1582576835474" class="icon" viewBox="0 0 1024 1024" version="1.1" xmlns="http://www.w3.org/2000/svg" p-id="6458" xmlns:xlink="http://www.w3.org/1999/xlink" width="200" height="200"><defs><style type="text/css"></style></defs><path d="M864 320 320 320c0-105.856 86.144-192 192-192 44.736 0 88.192 15.68 122.56 44.16 13.632 11.328 33.792 9.408 45.056-4.16 11.264-13.632 9.408-33.728-4.16-45.056C629.632 84.928 571.584 64 512 64 370.816 64 256 178.816 256 320L160 320C142.336 320 128 334.336 128 352l0 576C128 945.664 142.336 960 160 960l704 0c17.664 0 32-14.336 32-32l0-576C896 334.336 881.664 320 864 320zM832 896 192 896 192 384l640 0L832 896z" p-id="6459"></path><path d="M480 699.456 480 800C480 817.664 494.336 832 512 832s32-14.336 32-32l0-100.544C599.04 685.12 640 635.456 640 576c0-70.592-57.408-128-128-128S384 505.408 384 576C384 635.456 424.96 685.12 480 699.456zM512 512c35.264 0 64 28.672 64 64s-28.736 64-64 64S448 611.328 448 576 476.736 512 512 512z" p-id="6460"></path></svg>