<?xml version="1.0" standalone="no"?><!DOCTYPE svg PUBLIC "-//W3C//DTD SVG 1.1//EN" "http://www.w3.org/Graphics/SVG/1.1/DTD/svg11.dtd"><svg t="1582244878284" class="icon" viewBox="0 0 1024 1024" version="1.1" xmlns="http://www.w3.org/2000/svg" p-id="3363" xmlns:xlink="http://www.w3.org/1999/xlink" width="200" height="200"><defs><style type="text/css"></style></defs><path d="M563.2 1006.933333c-3.413333 0-10.24 0-13.653333-3.413333l-477.866667-477.866667c-6.826667-6.826667-6.826667-17.066667 0-23.893333l477.866667-477.866667c6.826667-6.826667 17.066667-6.826667 23.893333 0s6.826667 17.066667 0 23.893334L109.226667 512l464.213333 464.213333c6.826667 6.826667 6.826667 17.066667 0 23.893334 0 6.826667-6.826667 6.826667-10.24 6.826666z" fill="" p-id="3364"></path><path d="M938.666667 1006.933333c-3.413333 0-10.24 0-13.653334-3.413333l-477.866666-477.866667c-6.826667-6.826667-6.826667-17.066667 0-23.893333l477.866666-477.866667c6.826667-6.826667 17.066667-6.826667 23.893334 0s6.826667 17.066667 0 23.893334L484.693333 512l464.213334 464.213333c6.826667 6.826667 6.826667 17.066667 0 23.893334 0 6.826667-6.826667 6.826667-10.24 6.826666z" fill="" p-id="3365"></path></svg>